<svg xmlns="http://www.w3.org/2000/svg" width="24" height="24" fill="none" viewBox="0 0 11 14" class="inline text-arenaOrange"><path fill="#ffffff" fill-rule="evenodd" d="M10.31 14V5.154a5.155 5.155 0 1 0-10.31 0V14h.224V6.051A4.937 4.937 0 0 1 5.156 1.12a4.936 4.936 0 0 1 4.93 4.931v7.948h.224Zm-.894-.838V5.658a4.26 4.26 0 1 0-8.519 0v7.504h.224V6.419a4.041 4.041 0 0 1 4.036-4.036A4.04 4.04 0 0 1 9.193 6.42v6.743h.223Zm-.9-6.997v6.163H8.29V6.792a3.144 3.144 0 0 0-3.14-3.14 3.144 3.144 0 0 0-3.14 3.14v5.536h-.224V6.165a3.365 3.365 0 0 1 6.728 0ZM7.62 11.49V6.668a2.469 2.469 0 1 0-4.937 0v4.822h.224V7.161a2.248 2.248 0 0 1 2.245-2.245A2.247 2.247 0 0 1 7.397 7.16v4.33h.224ZM6.73 7.172v3.48h-.224V7.53a1.35 1.35 0 0 0-1.35-1.35c-.743 0-1.35.605-1.35 1.35v3.123h-.223V7.172c0-.87.705-1.574 1.574-1.574.867 0 1.573.705 1.573 1.574Zm-.903 2.646v-2.14a.678.678 0 0 0-1.355 0v2.14h.224V7.903a.454.454 0 1 1 .908 0v1.915h.223Z" clip-rule="evenodd"></path></svg>