<svg width="32" height="22" viewBox="0 0 36 24" fill="none" xmlns="http://www.w3.org/2000/svg"><path d="M15.1485 15.3075L13.4171 7.68003C13.4168 7.67681 13.4176 7.67359 13.4194 7.67089L15.4068 4.23912C15.4085 4.23677 15.4109 4.235 15.4137 4.23405C15.4164 4.2331 15.4194 4.23302 15.4222 4.23382C15.425 4.23462 15.4275 4.23626 15.4293 4.23851C15.4311 4.24077 15.4322 4.24353 15.4324 4.24643L17.1938 31.9849C17.1939 31.9869 17.1936 31.9888 17.193 31.9907C17.1923 31.9925 17.1913 31.9941 17.19 31.9956C17.1887 31.997 17.1871 31.9981 17.1853 31.9989C17.1835 31.9996 17.1816 32 17.1796 32H15.9403C15.9368 32 15.9334 31.9987 15.9307 31.9964C15.9281 31.994 15.0122 31.9907 15.0119 31.9872L13.0768 17.798C13.0765 17.7953 13.077 17.7926 13.0781 17.7902L15.1472 15.3152C15.1484 15.3128 15.1488 15.3101 15.1485 15.3075Z" fill="#CA2929"></path><path d="M10.0386 13.6375L13.5335 31.9808C13.534 31.9831 13.5339 31.9855 13.5334 31.9878C13.5328 31.9901 13.5317 31.9922 13.5303 31.9941C13.5288 31.9959 13.5269 31.9974 13.5248 31.9984C13.5227 31.9994 13.5203 32 13.518 32H10.8711C10.8675 32 10.864 31.9988 10.8612 31.9965C10.8584 31.9943 10.8564 31.9912 10.8556 31.9876L8.53967 23.1387C8.53893 23.1357 8.53909 23.1325 8.54013 23.1296L10.0738 20.7538C10.0748 20.751 10.075 20.748 10.0743 20.7451L8.67773 15.915C8.67726 15.9128 8.67726 15.9105 8.67773 15.9083C8.67821 15.9061 8.67914 15.904 8.68047 15.9022L10.0103 13.6311C10.0122 13.6287 10.0147 13.6268 10.0176 13.6258C10.0204 13.6247 10.0235 13.6245 10.0265 13.6252C10.0295 13.6259 10.0322 13.6274 10.0344 13.6296C10.0365 13.6317 10.038 13.6345 10.0386 13.6375Z" fill="#CA2929"></path><path d="M5.31748 25.9813L4.22399 23.8364C4.22399 23.8364 4.22171 23.8036 4.23268 23.7893L5.43817 21.7394C5.43998 21.7372 5.44236 21.7355 5.44506 21.7344C5.44776 21.7334 5.45067 21.7331 5.45349 21.7336C5.4563 21.734 5.45892 21.7352 5.46105 21.7371C5.46318 21.7389 5.46475 21.7413 5.46559 21.744L8.81279 31.9794C8.81351 31.9818 8.81367 31.9843 8.81328 31.9868C8.81288 31.9892 8.81194 31.9915 8.81052 31.9935C8.8091 31.9955 8.80724 31.9972 8.8051 31.9983C8.80296 31.9994 8.80058 32 8.79817 32H6.07817C6.07063 32 6.06324 31.9977 6.05696 31.9934C6.05068 31.9891 6.04581 31.983 6.04297 31.9758L4.16914 28.571C4.15937 28.5458 4.15808 28.5183 4.16548 28.4928C4.25539 28.1783 5.25104 26.4873 5.32388 26.1628C5.33759 26.1018 5.31748 25.9813 5.31748 25.9813Z" fill="#CA2929"></path><path d="M3.5649 31.981L2.65462 29.7201C2.65343 29.7185 2.65157 29.7172 2.64921 29.7162C2.64686 29.7152 2.64409 29.7145 2.64117 29.7144C2.63825 29.7142 2.63528 29.7144 2.63254 29.7151C2.6298 29.7158 2.62738 29.7168 2.62552 29.7182L1.80561 30.4288C1.8017 30.4317 1.79918 30.4351 1.79833 30.4387C1.79747 30.4423 1.80076 30.4493 1.80076 30.4493L0 32C0 32 0.564168 31.9931 0.925682 31.9893C1.57977 31.9825 2.60067 31.9991 2.60067 31.9991C2.60067 31.9991 2.62115 31.9881 2.63786 31.9881H3.55722C3.55865 31.9881 3.56006 31.9879 3.56131 31.9875C3.56257 31.9871 3.56363 31.9865 3.5644 31.9858C3.56516 31.9851 3.56561 31.9843 3.5657 31.9834C3.56579 31.9826 3.56551 31.9817 3.5649 31.981Z" fill="#CA2929"></path><path d="M18.3771 1.24675L19.0496 0C19.7267 0.0249351 20.4033 0.0249351 21.0793 0C21.0838 0.000554113 21.0886 0.000554113 21.0934 0H21.3243L21.9712 1.24675L20.9275 31.9913C20.9274 31.9936 20.9263 31.9958 20.9244 31.9975C20.9225 31.9991 20.92 32 20.9174 32H19.4345C19.4256 32 19.4212 31.996 19.4212 31.9879L18.3771 1.24675Z" fill="#CA2929"></path><path d="M17.8514 14.1943L20.0228 11.04H20.8914V31.9543H19.0857L17.8514 14.1943Z" fill="#CA2929"></path><path d="M25.2171 15.3075L26.9486 7.68003C26.9489 7.67681 26.9481 7.67359 26.9463 7.67089L24.9589 4.23912C24.9572 4.23677 24.9548 4.235 24.952 4.23405C24.9493 4.2331 24.9463 4.23302 24.9435 4.23382C24.9407 4.23462 24.9382 4.23626 24.9364 4.23851C24.9346 4.24077 24.9335 4.24353 24.9333 4.24643L23.1719 31.9849C23.1718 31.9869 23.172 31.9888 23.1727 31.9907C23.1734 31.9925 23.1744 31.9941 23.1757 31.9956C23.177 31.997 23.1786 31.9981 23.1804 31.9989C23.1822 31.9996 23.1841 32 23.1861 32H24.4254C24.4289 32 24.4323 31.9987 24.4349 31.9964C24.4376 31.994 25.3535 31.9907 25.3538 31.9872L27.2889 17.798C27.2892 17.7953 27.2887 17.7926 27.2875 17.7902L25.2185 15.3152C25.2173 15.3128 25.2169 15.3101 25.2171 15.3075Z" fill="#CA2929"></path><path d="M30.327 13.6375L26.8322 31.9808C26.8317 31.9831 26.8318 31.9855 26.8323 31.9878C26.8329 31.9901 26.8339 31.9922 26.8354 31.9941C26.8369 31.9959 26.8388 31.9974 26.8409 31.9984C26.843 31.9994 26.8454 32 26.8477 32H29.4946C29.4982 32 29.5017 31.9988 29.5045 31.9965C29.5073 31.9943 29.5093 31.9912 29.5101 31.9876L31.826 23.1387C31.8268 23.1357 31.8266 23.1325 31.8256 23.1296L30.2918 20.7538C30.2909 20.751 30.2907 20.748 30.2914 20.7451L31.688 15.915C31.6884 15.9128 31.6884 15.9105 31.688 15.9083C31.6875 15.9061 31.6866 15.904 31.6852 15.9022L30.3554 13.6311C30.3535 13.6287 30.351 13.6268 30.3481 13.6258C30.3453 13.6247 30.3422 13.6245 30.3392 13.6252C30.3362 13.6259 30.3335 13.6274 30.3313 13.6296C30.3292 13.6317 30.3277 13.6345 30.327 13.6375Z" fill="#CA2929"></path><path d="M35.0482 25.9813L36.1417 23.8364C36.1417 23.8364 36.144 23.8036 36.133 23.7893L34.9275 21.7394C34.9257 21.7372 34.9233 21.7355 34.9206 21.7344C34.9179 21.7334 34.915 21.7331 34.9122 21.7336C34.9094 21.734 34.9067 21.7352 34.9046 21.7371C34.9025 21.7389 34.9009 21.7413 34.9001 21.744L31.5529 31.9794C31.5522 31.9818 31.552 31.9843 31.5524 31.9868C31.5528 31.9892 31.5537 31.9915 31.5551 31.9935C31.5566 31.9955 31.5584 31.9972 31.5606 31.9983C31.5627 31.9994 31.5651 32 31.5675 32H34.2875C34.295 32 34.3024 31.9977 34.3087 31.9934C34.315 31.9891 34.3199 31.983 34.3227 31.9758L36.1965 28.571C36.2063 28.5458 36.2076 28.5183 36.2002 28.4928C36.1103 28.1783 35.1146 26.4873 35.0418 26.1628C35.0281 26.1018 35.0482 25.9813 35.0482 25.9813Z" fill="#CA2929"></path><path d="M37.2579 31.981L38.1682 29.7201C38.1694 29.7185 38.1712 29.7172 38.1736 29.7162C38.176 29.7152 38.1787 29.7145 38.1816 29.7144C38.1846 29.7142 38.1875 29.7144 38.1903 29.7151C38.193 29.7158 38.1954 29.7168 38.1973 29.7182L39.0172 30.4288C39.0211 30.4317 39.0236 30.4351 39.0245 30.4387C39.0253 30.4423 39.0221 30.4493 39.0221 30.4493L40.8228 32C40.8228 32 40.2586 31.9931 39.8971 31.9893C39.243 31.9825 38.2221 31.9991 38.2221 31.9991C38.2221 31.9991 38.2017 31.9881 38.185 31.9881H37.2656C37.2642 31.9881 37.2628 31.9879 37.2615 31.9875C37.2602 31.9871 37.2592 31.9865 37.2584 31.9858C37.2577 31.9851 37.2572 31.9843 37.2571 31.9834C37.257 31.9826 37.2573 31.9817 37.2579 31.981Z" fill="#CA2929"></path><path d="M21.9886 1.24675L21.3161 0C20.639 0.0249351 19.9624 0.0249351 19.2864 0C19.2818 0.000554113 19.2771 0.000554113 19.2722 0H19.0414L18.3945 1.24675L19.4382 31.9913C19.4383 31.9936 19.4394 31.9958 19.4413 31.9975C19.4432 31.9991 19.4457 32 19.4482 32H20.9312C20.9401 32 20.9445 31.996 20.9445 31.9879L21.9886 1.24675Z" fill="#CA2929"></path><path d="M22.5143 14.1943L20.3429 11.04H19.4743V31.9543H21.28L22.5143 14.1943Z" fill="#CA2929"></path></svg>